<?xml version="1.0" encoding="UTF-8" standalone="no"?>
<!DOCTYPE svg PUBLIC "-//W3C//DTD SVG 1.1//EN" "http://www.w3.org/Graphics/SVG/1.1/DTD/svg11.dtd">
<svg width="100%" height="100%" viewBox="0 0 100 100" version="1.1" xmlns="http://www.w3.org/2000/svg" xmlns:xlink="http://www.w3.org/1999/xlink" xml:space="preserve" xmlns:serif="http://www.serif.com/" style="fill-rule:evenodd;clip-rule:evenodd;stroke-linejoin:round;stroke-miterlimit:2;">
    <g id="Calendar" transform="matrix(1.74319,0,0,1.74319,-1266.47,-29.1086)">
        <path d="M768.129,22.001C768.469,22.007 768.808,22.026 769.147,22.065C769.928,22.155 770.699,22.337 771.437,22.608C772.874,23.134 774.182,23.995 775.237,25.102C776.211,26.123 776.965,27.348 777.434,28.678C777.682,29.381 777.85,30.113 777.935,30.853C777.973,31.192 777.993,31.531 777.999,31.871C778.056,40.623 778.056,49.377 777.999,58.129C777.993,58.469 777.973,58.808 777.935,59.147C777.85,59.887 777.682,60.619 777.434,61.322C776.965,62.652 776.211,63.878 775.237,64.898C774.182,66.005 772.874,66.866 771.437,67.392C770.699,67.663 769.928,67.845 769.147,67.935C768.808,67.974 768.469,67.993 768.129,67.999C759.376,68.055 750.623,68.055 741.871,67.999C741.531,67.993 741.192,67.974 740.853,67.935C740.072,67.845 739.301,67.663 738.563,67.392C737.277,66.921 736.093,66.182 735.102,65.237C733.965,64.153 733.088,62.804 732.566,61.322C732.318,60.619 732.15,59.887 732.065,59.147C732.027,58.808 732.007,58.469 732.001,58.129C731.944,49.377 731.944,40.623 732.001,31.871C732.007,31.531 732.027,31.192 732.065,30.853C732.15,30.113 732.318,29.381 732.566,28.678C733.088,27.196 733.965,25.846 735.102,24.763C736.093,23.818 737.277,23.079 738.563,22.608C739.301,22.337 740.072,22.155 740.853,22.065C741.192,22.026 741.531,22.007 741.871,22.001C750.623,21.945 759.376,21.945 768.129,22.001ZM776.022,36L733.978,36C733.945,43.368 733.953,50.736 734.001,58.104C734.006,58.41 734.026,58.715 734.064,59.02C734.135,59.577 734.266,60.127 734.452,60.657C734.87,61.843 735.572,62.923 736.482,63.79C737.275,64.546 738.222,65.137 739.251,65.515C739.841,65.731 740.457,65.876 741.081,65.948C741.352,65.979 741.624,65.994 741.896,65.999C750.632,66.055 759.368,66.055 768.104,65.999C768.376,65.994 768.648,65.979 768.919,65.948C769.543,65.876 770.159,65.731 770.749,65.515C771.899,65.093 772.945,64.404 773.79,63.518C774.569,62.701 775.172,61.721 775.548,60.657C775.746,60.095 775.88,59.511 775.948,58.919C775.979,58.648 775.994,58.376 775.999,58.104C776.047,50.736 776.055,43.368 776.022,36ZM739,57C740.104,57 741,57.896 741,59C741,60.104 740.104,61 739,61C737.896,61 737,60.104 737,59C737,57.896 737.896,57 739,57ZM763,57C764.104,57 765,57.896 765,59C765,60.104 764.104,61 763,61C761.896,61 761,60.104 761,59C761,57.896 761.896,57 763,57ZM747,57C748.104,57 749,57.896 749,59C749,60.104 748.104,61 747,61C745.896,61 745,60.104 745,59C745,57.896 745.896,57 747,57ZM771,57C772.104,57 773,57.896 773,59C773,60.104 772.104,61 771,61C769.896,61 769,60.104 769,59C769,57.896 769.896,57 771,57ZM755,57C756.104,57 757,57.896 757,59C757,60.104 756.104,61 755,61C753.896,61 753,60.104 753,59C753,57.896 753.896,57 755,57ZM763,47C765.208,47 767,48.792 767,51C767,53.208 765.208,55 763,55C760.792,55 759,53.208 759,51C759,48.792 760.792,47 763,47ZM747,49C748.104,49 749,49.896 749,51C749,52.104 748.104,53 747,53C745.896,53 745,52.104 745,51C745,49.896 745.896,49 747,49ZM771,49C772.104,49 773,49.896 773,51C773,52.104 772.104,53 771,53C769.896,53 769,52.104 769,51C769,49.896 769.896,49 771,49ZM739,49C740.104,49 741,49.896 741,51C741,52.104 740.104,53 739,53C737.896,53 737,52.104 737,51C737,49.896 737.896,49 739,49ZM755,49C756.104,49 757,49.896 757,51C757,52.104 756.104,53 755,53C753.896,53 753,52.104 753,51C753,49.896 753.896,49 755,49ZM747,41C748.104,41 749,41.896 749,43C749,44.104 748.104,45 747,45C745.896,45 745,44.104 745,43C745,41.896 745.896,41 747,41ZM771,41C772.104,41 773,41.896 773,43C773,44.104 772.104,45 771,45C769.896,45 769,44.104 769,43C769,41.896 769.896,41 771,41ZM763,41C764.104,41 765,41.896 765,43C765,44.104 764.104,45 763,45C761.896,45 761,44.104 761,43C761,41.896 761.896,41 763,41ZM739,41C740.104,41 741,41.896 741,43C741,44.104 740.104,45 739,45C737.896,45 737,44.104 737,43C737,41.896 737.896,41 739,41ZM755,41C756.104,41 757,41.896 757,43C757,44.104 756.104,45 755,45C753.896,45 753,44.104 753,43C753,41.896 753.896,41 755,41Z"/>
    </g>
</svg>
