<?xml version="1.0" encoding="UTF-8" standalone="no"?>
<!DOCTYPE svg PUBLIC "-//W3C//DTD SVG 1.1//EN" "http://www.w3.org/Graphics/SVG/1.1/DTD/svg11.dtd">
<svg width="100%" height="100%" viewBox="0 0 100 100" version="1.1" xmlns="http://www.w3.org/2000/svg" xmlns:xlink="http://www.w3.org/1999/xlink" xml:space="preserve" xmlns:serif="http://www.serif.com/" style="fill-rule:evenodd;clip-rule:evenodd;stroke-linejoin:round;stroke-miterlimit:2;">
    <g id="User-Group---Man---Woman" serif:id="User Group - Man &amp; Woman" transform="matrix(2.59547,2.23951e-31,-3.1993e-32,2.59547,-799.573,15.0018)">
        <path d="M344,24L322.236,24C322.236,24 322.182,21.926 323.509,20.699C324.914,19.399 326.822,19.365 326.822,19.365C328.955,19.244 330.754,17.748 330.754,17.748L330.754,16.048C330.754,16.048 328.177,15.318 327.304,14.431C327.304,14.431 327.875,13.008 328.024,12.494C328.17,11.988 328.16,11.331 328.093,10.264C328.027,9.196 327.84,7.221 328.041,6.221C328.241,5.221 328.821,3.607 329.758,3.106C330.695,2.607 331.795,2.855 331.795,2.855C331.795,2.855 332.451,2.38 333.368,2.186C334.083,2.034 335.301,2.191 335.937,2.625C336.574,3.059 337.436,3.847 337.776,5.008C338.162,6.327 338.169,7.901 338.023,8.967C337.941,9.561 338.001,10.26 338.046,10.731C338.076,11.071 338.244,12.002 338.519,12.846C338.839,13.834 339.272,14.541 339.272,14.541C339.272,14.541 338.921,15.214 337.664,15.608C336.33,16.025 335.483,16.048 335.483,16.048L335.483,17.748C335.483,17.748 337.282,19.244 339.414,19.365C339.414,19.365 341.322,19.399 342.728,20.699C344.055,21.926 344,24 344,24ZM322.829,19.971C321.229,21.45 321.235,23.794 321.238,24L310.002,24C310.002,24 309.865,20.653 311.934,19.489C314.341,18.135 316.629,18.006 317.329,17.78C317.983,17.569 318.685,17.347 318.685,16.446C318.685,15.546 318.696,15.429 318.474,15.309C318.051,15.077 317.799,14.719 317.744,14.441C317.642,13.922 317.588,12.468 317.454,12.283C317.319,12.095 317.079,12.255 316.999,11.829C316.918,11.403 316.918,11.029 316.838,10.87C316.758,10.71 316.477,9.679 316.652,9.324C316.805,9.008 317.086,9.173 317.106,8.977C317.14,8.658 316.541,5.98 316.945,4.846C317.365,3.666 317.822,3.503 318.25,3.235C318.679,2.969 318.952,2.287 319.969,1.78C320.986,1.274 322.483,1.567 322.992,1.78C323.501,1.994 325.534,2.552 325.828,3.592C325.832,3.607 326.313,4.203 326.542,4.846C326.946,5.98 326.347,8.658 326.382,8.977C326.401,9.173 326.681,9.008 326.836,9.324C327.01,9.679 326.728,10.71 326.649,10.87C326.569,11.029 326.569,11.403 326.489,11.829C326.408,12.255 326.168,12.095 326.034,12.283C325.9,12.468 325.845,13.922 325.742,14.441C325.688,14.719 325.437,15.077 325.013,15.309C324.791,15.429 324.803,15.546 324.803,16.446C324.803,17.347 325.505,17.569 326.158,17.78C326.469,17.88 327.104,17.967 327.912,18.145C327.557,18.258 327.188,18.348 326.803,18.371C326.71,18.373 324.496,18.429 322.829,19.971Z"/>
    </g>
</svg>
