<?xml version="1.0" encoding="UTF-8" standalone="no"?>
<!DOCTYPE svg PUBLIC "-//W3C//DTD SVG 1.1//EN" "http://www.w3.org/Graphics/SVG/1.1/DTD/svg11.dtd">
<svg width="100%" height="100%" viewBox="0 0 100 100" version="1.1" xmlns="http://www.w3.org/2000/svg" xmlns:xlink="http://www.w3.org/1999/xlink" xml:space="preserve" xmlns:serif="http://www.serif.com/" style="fill-rule:evenodd;clip-rule:evenodd;stroke-linejoin:round;stroke-miterlimit:2;">
    <g id="Medical" transform="matrix(1.7119,0,0,1.7119,-147.228,-2000.06)">
        <path d="M110.031,1188.34L110.031,1188.39L110.124,1188.39L110.031,1188.34L110.031,1172L119.969,1172L119.969,1188.34L119.876,1188.39L119.969,1188.39L119.969,1188.34L133.17,1180.67L134.03,1180.17L134.527,1181.04L138.502,1187.96L138.999,1188.83L138.138,1189.33L124.937,1197L138.138,1204.67L138.999,1205.17L138.502,1206.04L134.527,1212.96L134.03,1213.83L133.17,1213.33L119.969,1205.66L119.969,1205.61L119.876,1205.61L119.969,1205.66L119.969,1222L110.031,1222L110.031,1205.66L110.124,1205.61L110.031,1205.61L110.031,1205.66L96.83,1213.33L95.97,1213.83L95.473,1212.96L91.498,1206.04L91.001,1205.17L91.862,1204.67L105.063,1197L91.862,1189.33L91.001,1188.83L91.498,1187.96L95.473,1181.04L95.97,1180.17L96.83,1180.67L110.031,1188.34ZM105.063,1197L105.063,1197C105.063,1197 105.063,1197 105.063,1197ZM124.937,1197C124.937,1197 124.937,1197 124.937,1197L124.937,1197Z"/>
    </g>
</svg>
